<svg xmlns="http://www.w3.org/2000/svg" fill="none" viewBox="0 0 120 25" width="100%">
                      <path fill="currentColor" d="M113.752 23.8715C109.977 23.8715 106.84 21.3983 106.84 17.1096C106.84 13.0841 110.032 10.2688 113.668 10.2688C117.055 10.2688 119.359 12.7157 119.359 15.2416C119.359 15.7941 119.192 15.9519 118.776 16.0835L109.893 18.583C110.643 20.609 112.419 22.0824 114.668 22.0824C116.333 22.0824 117.666 21.372 118.637 20.4774C118.97 20.2143 119.137 20.0828 119.359 20.0828C119.664 20.0828 119.914 20.3459 119.914 20.6616C119.914 20.8195 119.831 21.0299 119.636 21.3194C118.637 22.6875 116.167 23.8715 113.752 23.8715ZM109.449 16.1624C109.449 16.5308 109.477 16.8991 109.532 17.2412L115.945 15.3731C116.444 15.2416 116.583 15.11 116.583 14.6364C116.583 13.3998 115.278 11.7948 113.308 11.7948C111.115 11.7948 109.449 13.5577 109.449 16.1624Z"></path>
                      <path fill="currentColor" d="M99.9193 23.6049C99.4589 23.6049 99.2694 23.315 99.2694 23.0779C99.2694 22.0767 100.975 22.8408 100.975 20.7067V14.3043C100.975 12.6971 99.0527 13.5929 99.0527 12.5654C99.0527 12.1438 99.5402 11.8277 100.948 11.169C102.329 10.5103 102.627 10.4313 102.844 10.4313C103.277 10.4313 103.412 10.8001 103.412 11.3798V20.7067C103.412 22.8408 105.173 22.0767 105.173 23.0779C105.173 23.315 104.983 23.6049 104.577 23.6049C103.981 23.6049 103.169 23.5258 102.194 23.5258C101.246 23.5258 100.488 23.6049 99.9193 23.6049ZM100 6.24205C100 5.24086 101.029 4.13428 102.383 4.13428C103.196 4.13428 103.9 4.63487 103.9 5.47798C103.9 6.47918 102.79 7.58576 101.436 7.58576C100.705 7.58576 100 7.11151 100 6.24205Z"></path>
                      <path fill="currentColor" d="M92.678 23.6049C92.2095 23.6049 91.8788 23.3716 91.8788 23.0604C91.8788 22.1269 93.7529 22.7492 93.7529 21.1415C93.7529 20.934 93.7254 20.6229 93.6702 20.3635L92.9812 16.0071C92.7883 14.7106 92.4576 12.5064 90.3078 12.5064C88.6817 12.5064 87.1934 13.6474 87.1934 16.1627V20.7525C87.1934 22.8529 89.0124 22.1009 89.0124 23.0863C89.0124 23.3197 88.792 23.6049 88.3785 23.6049C87.7722 23.6049 86.9729 23.5271 85.9532 23.5271C84.9886 23.5271 84.2444 23.6049 83.6381 23.6049C83.1971 23.6049 82.9766 23.3197 82.9766 23.0863C82.9766 22.1009 84.7129 22.8529 84.7129 20.7525V16.0071C84.7129 14.529 84.3547 12.5064 82.1773 12.5064C80.5237 12.5064 78.7322 13.7252 78.7322 16.3702V20.7525C78.7322 22.8529 80.5237 22.1009 80.5237 23.0863C80.5237 23.3197 80.3308 23.6049 79.9173 23.6049C79.311 23.6049 78.5117 23.5271 77.492 23.5271C76.5274 23.5271 75.7832 23.6049 75.1769 23.6049C74.7359 23.6049 74.5154 23.3197 74.5154 23.0863C74.5154 22.1009 76.2517 22.8529 76.2517 20.7525V14.4512C76.2517 12.8694 74.2949 13.7511 74.2949 12.7398C74.2949 12.3249 74.791 12.0137 76.1966 11.3654C77.6298 10.7172 77.9054 10.6394 78.1534 10.6394C78.622 10.6394 78.7322 11.0283 78.7322 11.5729V13.0769C79.6142 11.7285 81.0473 10.5356 83.1144 10.5356C85.1539 10.5356 86.2288 11.7025 86.7525 13.1028C87.5517 11.6766 88.8746 10.5356 91.0244 10.5356C94.1939 10.5356 95.0759 13.2325 95.4341 15.6959L96.1783 20.4932C96.5641 22.9307 98.2178 22.075 98.2178 23.1122C98.2178 23.4494 97.8595 23.6049 97.4461 23.6049C96.6744 23.6049 96.1507 23.5271 95.0483 23.5271C93.8632 23.5271 93.4498 23.6049 92.678 23.6049Z"></path>
                      <path fill="currentColor" d="M65.0662 23.8715C60.9975 23.8715 58.1602 21.1823 58.1602 17.266C58.1602 13.193 61.2117 10.2688 65.4677 10.2688C69.5631 10.2688 72.347 13.0102 72.347 16.9005C72.347 20.9734 69.2687 23.8715 65.0662 23.8715ZM60.7298 16.4305C60.7298 19.4852 62.7374 22.4355 65.7086 22.4355C68.1177 22.4355 69.7773 20.6079 69.7773 17.7098C69.7773 14.6551 67.7697 11.7048 64.7985 11.7048C62.3359 11.7048 60.7298 13.5846 60.7298 16.4305Z"></path>
                      <path fill="currentColor" d="M50.4916 23.6049C49.9965 23.6049 49.804 23.3655 49.804 23.0729C49.804 22.0356 51.6194 22.7006 51.6194 20.9186V15.28C51.6194 14.881 51.4819 14.6948 50.8767 14.6948H41.8268C41.1942 14.6948 41.0566 14.881 41.0566 15.28V20.9186C41.0566 22.7006 42.8721 22.0356 42.8721 23.0729C42.8721 23.3655 42.6796 23.6049 42.1844 23.6049C41.5793 23.6049 40.699 23.5251 39.6537 23.5251C38.6085 23.5251 37.7832 23.6049 37.1506 23.6049C36.6829 23.6049 36.4629 23.3655 36.4629 23.0729C36.4629 22.0356 38.3059 22.7006 38.3059 20.9186V7.38063C38.3059 5.59862 36.4629 6.23695 36.4629 5.19967C36.4629 4.9337 36.6829 4.66772 37.1781 4.66772C37.8108 4.66772 38.6085 4.74752 39.6537 4.74752C40.699 4.74752 41.5793 4.66772 42.1844 4.66772C42.6796 4.66772 42.8721 4.9337 42.8721 5.19967C42.8721 6.23695 41.0566 5.59862 41.0566 7.38063V12.6735C41.0566 13.099 41.1942 13.2586 41.8268 13.2586H50.8767C51.4819 13.2586 51.6194 13.099 51.6194 12.6735V7.38063C51.6194 5.59862 49.804 6.23695 49.804 5.19967C49.804 4.9337 49.9965 4.66772 50.4916 4.66772C51.0968 4.66772 51.9495 4.74752 52.9948 4.74752C54.0401 4.74752 54.8928 4.66772 55.5255 4.66772C56.0206 4.66772 56.2132 4.9337 56.2132 5.19967C56.2132 6.23695 54.3702 5.59862 54.3702 7.38063V20.9186C54.3702 22.7006 56.2132 22.0356 56.2132 23.0729C56.2132 23.3655 56.0206 23.6049 55.5255 23.6049C54.8928 23.6049 54.0401 23.5251 52.9948 23.5251C51.9495 23.5251 51.0968 23.6049 50.4916 23.6049Z"></path>
                      <path fill="currentColor" d="M28.7618 22.9664V5.14018C28.7618 4.94259 28.6588 4.75808 28.4873 4.64848L22.9404 1.10279C22.7334 0.970455 22.4637 0.970455 22.2567 1.10279L16.7097 4.64848C16.5383 4.75808 16.4353 4.94259 16.4353 5.14018V11.7384C16.4353 12.8263 15.5155 13.7082 14.3809 13.7082C13.2463 13.7082 12.3265 12.8263 12.3265 11.7384V5.04094C12.3265 4.84335 12.2235 4.65884 12.052 4.54924L6.50511 1.00355C6.29809 0.871214 6.02838 0.871214 5.82136 1.00355L0.274449 4.54924C0.102988 4.65884 0 4.84335 0 5.04094V22.9664C0 23.2927 0.275938 23.5573 0.616324 23.5573H11.7101C12.0505 23.5573 12.3265 23.2927 12.3265 22.9664V17.6478C12.3265 16.5599 13.2463 15.678 14.3809 15.678C15.5155 15.678 16.4353 16.5599 16.4353 17.6478V22.9664C16.4353 23.2927 16.7112 23.5573 17.0516 23.5573H28.1454C28.4858 23.5573 28.7618 23.2927 28.7618 22.9664Z"></path>
                    </svg>